<svg width="250" height="36" viewBox="0 0 250 36" fill="none" xmlns="http://www.w3.org/2000/svg">
<g clip-path="url(#clip0)">
<path d="M10.94 10.6103H15.65V17.7301H10.94V35.334H3.37V17.7301H0V10.6103H3.37C3.37 3.69588 7.24 -0.450817 15.61 -0.000939231V7.15798C12.83 6.91349 10.94 7.735 10.94 10.6103Z" fill="white"/>
<path d="M43.2901 10.6113V35.3057H35.7201V32.9976C34.3701 34.8069 31.8501 36.0001 28.5201 36.0001C23.4301 36.0001 19.1001 32.4597 19.1001 25.7996V10.6504H26.6701V24.7238C26.6701 27.7751 28.6701 29.2128 31.0501 29.2128C33.8301 29.2128 35.7601 27.648 35.7601 24.1468V10.6993H43.2901V10.6113Z" fill="white"/>
<path d="M59.4518 17.7305V26.4542C59.4518 28.596 61.3018 28.7623 64.6218 28.596V35.3051C54.7318 36.2831 51.8718 33.3491 51.8718 26.5031V17.7305H47.8718V10.6107H51.8718V5.92612L59.4518 3.69629V10.6107H64.6218V17.7305H59.4518Z" fill="white"/>
<path d="M94.2828 10.6113V35.3057H86.7128V32.9976C85.3628 34.8069 82.8428 36.0001 79.5128 36.0001C74.4228 36.0001 70.0928 32.4597 70.0928 25.7996V10.6504H77.6628V24.7238C77.6628 27.7751 79.6628 29.2128 82.0428 29.2128C84.8228 29.2128 86.7528 27.648 86.7528 24.1468V10.6993H94.2828V10.6113Z" fill="white"/>
<path d="M116.004 10.1221V18.5133C112.894 18.0243 108.434 19.2565 108.434 24.1465V35.3054H100.854V10.6111H108.434V15.012C109.434 11.7358 112.794 10.1221 116.004 10.1221Z" fill="white"/>
<path d="M132.575 29.3401C133.471 29.3682 134.363 29.214 135.194 28.8874C136.026 28.5608 136.779 28.0689 137.406 27.4428L143.466 30.856C140.986 34.2301 137.286 35.922 132.465 35.922C123.845 35.922 118.465 30.2398 118.465 22.8755C118.465 15.5112 123.895 9.83887 131.895 9.83887C139.256 9.83887 144.726 15.3939 144.726 22.8755C144.732 23.8611 144.631 24.8446 144.426 25.8095H126.555C127.485 28.4697 129.795 29.3401 132.575 29.3401ZM137.246 20.323C136.969 19.1583 136.281 18.1268 135.301 17.4109C134.322 16.695 133.116 16.3408 131.895 16.411C130.652 16.3184 129.415 16.6609 128.406 17.3774C127.396 18.094 126.68 19.1379 126.385 20.323H137.246Z" fill="white"/>
<path d="M187.857 20.1167V35.2561H180.277V20.7329C180.277 18.2683 179.057 16.7035 176.667 16.7035C174.277 16.7035 172.667 18.4346 172.667 21.349V35.2561H165.096V20.7329C165.096 18.2683 163.876 16.7035 161.476 16.7035C159.076 16.7035 157.526 18.4346 157.526 21.349V35.2561H150.006V10.5715H157.586V12.8307C158.756 11.1485 160.946 9.89669 164.356 9.89669C165.649 9.83764 166.936 10.1054 168.092 10.6741C169.248 11.2429 170.235 12.0934 170.957 13.1436C172.397 11.1876 174.707 9.89669 178.287 9.89669C184.107 9.91625 187.857 13.9456 187.857 20.1167Z" fill="#89C7D1"/>
<path d="M206.918 29.3401C207.814 29.3682 208.705 29.214 209.537 28.8874C210.368 28.5608 211.121 28.0689 211.748 27.4428L217.809 30.856C215.329 34.2301 211.628 35.922 206.808 35.922C198.188 35.922 192.808 30.2398 192.808 22.8755C192.808 15.5112 198.238 9.83887 206.228 9.83887C213.598 9.83887 219.069 15.3939 219.069 22.8755C219.075 23.8611 218.974 24.8446 218.769 25.8095H200.898C201.778 28.4697 204.138 29.3401 206.918 29.3401ZM211.538 20.323C211.264 19.1591 210.577 18.1278 209.6 17.4118C208.622 16.6957 207.417 16.3412 206.198 16.411C204.954 16.3164 203.716 16.6581 202.707 17.375C201.697 18.0918 200.981 19.1369 200.688 20.323H211.538Z" fill="#89C7D1"/>
<path d="M250.01 0.743236V35.2567H242.43V32.9584C241.483 33.976 240.315 34.7737 239.012 35.2932C237.709 35.8127 236.304 36.0408 234.9 35.9608C228.299 35.9608 222.829 30.2787 222.829 22.9144C222.829 15.5501 228.259 9.87771 234.9 9.87771C236.303 9.80807 237.705 10.0409 239.006 10.5597C240.308 11.0786 241.476 11.8707 242.43 12.8802V0.694336H250.01V0.743236ZM242.43 22.9535C242.43 21.3972 241.798 19.9047 240.672 18.8042C239.547 17.7038 238.021 17.0855 236.43 17.0855C234.838 17.0855 233.312 17.7038 232.187 18.8042C231.062 19.9047 230.429 21.3972 230.429 22.9535C230.429 24.5098 231.062 26.0023 232.187 27.1028C233.312 28.2032 234.838 28.8215 236.43 28.8215C238.021 28.8215 239.547 28.2032 240.672 27.1028C241.798 26.0023 242.43 24.5098 242.43 22.9535Z" fill="#89C7D1"/>
</g>
<defs>
<clipPath id="clip0">
<rect width="250" height="36" fill="white"/>
</clipPath>
</defs>
</svg>
